<svg xmlns="http://www.w3.org/2000/svg" width="256" height="256" viewBox="0 0 256 256" version="1.1"><path d="M 118 6.070 C 111.500 8.996, 10.034 110.325, 6.473 117.446 C 3.112 124.169, 3.112 131.831, 6.473 138.554 C 10.034 145.675, 111.500 247.004, 118 249.930 C 123.909 252.590, 132.091 252.590, 138 249.930 C 144.500 247.004, 245.966 145.675, 249.527 138.554 C 252.658 132.292, 252.813 124.403, 249.930 118 C 247.004 111.500, 145.675 10.034, 138.554 6.473 C 132.292 3.342, 124.403 3.187, 118 6.070 M 81.246 81.254 C 56.361 106.144, 36.009 127.181, 36.021 128.004 C 36.032 128.827, 56.170 149.881, 80.771 174.792 C 116.334 210.801, 126.010 220.075, 127.988 220.042 C 131.633 219.981, 219.995 131.588, 220.010 127.988 C 220.018 126.027, 210.434 116.032, 174.760 80.798 C 149.867 56.213, 128.823 36.075, 127.996 36.048 C 127.169 36.022, 106.131 56.364, 81.246 81.254 M 124 48 L 124 52 128 52 L 132 52 132 48 L 132 44 128 44 L 124 44 124 48 M 81.200 89.200 C 80.383 90.017, 80 94.792, 80 104.165 C 80 116.750, 80.166 118.018, 81.934 118.965 C 83.005 119.538, 90.151 120, 97.934 120 L 112 120 112 150.800 C 112 173.422, 112.319 181.919, 113.200 182.800 C 114.869 184.469, 141.131 184.469, 142.800 182.800 C 143.681 181.919, 144 173.422, 144 150.800 L 144 120 158.800 120 C 168.978 120, 173.975 119.625, 174.800 118.800 C 176.469 117.131, 176.469 90.869, 174.800 89.200 C 173.073 87.473, 82.927 87.473, 81.200 89.200 M 88 104 L 88 112 102.800 112 C 112.978 112, 117.975 112.375, 118.800 113.200 C 119.681 114.081, 120 122.578, 120 145.200 L 120 176 128 176 L 136 176 136 145.200 C 136 122.578, 136.319 114.081, 137.200 113.200 C 138.025 112.375, 143.022 112, 153.200 112 L 168 112 168 104 L 168 96 128 96 L 88 96 88 104 M 44 128 L 44 132 48 132 L 52 132 52 128 L 52 124 48 124 L 44 124 44 128 M 204 128 L 204 132 208 132 L 212 132 212 128 L 212 124 208 124 L 204 124 204 128 M 124 208 L 124 212 128 212 L 132 212 132 208 L 132 204 128 204 L 124 204 124 208" stroke="none" fill="#040404" fill-rule="evenodd"/><path d="M 81.246 81.254 C 56.361 106.144, 36.009 127.181, 36.021 128.004 C 36.032 128.827, 56.170 149.881, 80.771 174.792 C 116.334 210.801, 126.010 220.075, 127.988 220.042 C 131.633 219.981, 219.995 131.588, 220.010 127.988 C 220.018 126.027, 210.434 116.032, 174.760 80.798 C 149.867 56.213, 128.823 36.075, 127.996 36.048 C 127.169 36.022, 106.131 56.364, 81.246 81.254 M 124 48 L 124 52 128 52 L 132 52 132 48 L 132 44 128 44 L 124 44 124 48 M 81.200 89.200 C 80.383 90.017, 80 94.792, 80 104.165 C 80 116.750, 80.166 118.018, 81.934 118.965 C 83.005 119.538, 90.151 120, 97.934 120 L 112 120 112 150.800 C 112 173.422, 112.319 181.919, 113.200 182.800 C 114.869 184.469, 141.131 184.469, 142.800 182.800 C 143.681 181.919, 144 173.422, 144 150.800 L 144 120 158.800 120 C 168.978 120, 173.975 119.625, 174.800 118.800 C 176.469 117.131, 176.469 90.869, 174.800 89.200 C 173.073 87.473, 82.927 87.473, 81.200 89.200 M 88 104 L 88 112 102.800 112 C 112.978 112, 117.975 112.375, 118.800 113.200 C 119.681 114.081, 120 122.578, 120 145.200 L 120 176 128 176 L 136 176 136 145.200 C 136 122.578, 136.319 114.081, 137.200 113.200 C 138.025 112.375, 143.022 112, 153.200 112 L 168 112 168 104 L 168 96 128 96 L 88 96 88 104 M 44 128 L 44 132 48 132 L 52 132 52 128 L 52 124 48 124 L 44 124 44 128 M 204 128 L 204 132 208 132 L 212 132 212 128 L 212 124 208 124 L 204 124 204 128 M 124 208 L 124 212 128 212 L 132 212 132 208 L 132 204 128 204 L 124 204 124 208" stroke="none" fill="#ce5642" fill-rule="evenodd"/></svg>